<?xml version="1.0" encoding="UTF-8"?>
<svg xmlns="http://www.w3.org/2000/svg" viewBox="0 0 1861.26 332.19">
  <defs>
    <style>
      .cls-1 {
        fill: #ec403b;
      }

      .cls-2 {
        fill: #f60;
      }

      .cls-3, .cls-4, .cls-5, .cls-6 {
        fill: #cc5200;
      }

      .cls-7 {
        stroke: #993700;
        stroke-width: 4px;
      }

      .cls-7, .cls-8, .cls-9, .cls-10, .cls-11, .cls-12 {
        fill: none;
        stroke-linecap: round;
        stroke-linejoin: round;
      }

      .cls-13 {
        fill: #fc3;
      }

      .cls-4 {
        opacity: .37;
      }

      .cls-14 {
        fill: #f25e4c;
      }

      .cls-8 {
        stroke: #fc3;
        stroke-width: .6px;
      }

      .cls-15 {
        fill: #ee413c;
      }

      .cls-16 {
        fill: #ef423c;
      }

      .cls-17 {
        fill: #f7eaad;
      }

      .cls-5 {
        opacity: .38;
      }

      .cls-9, .cls-11 {
        stroke: #f90;
      }

      .cls-18 {
        fill: #f2f2f0;
      }

      .cls-19 {
        fill: #6fb5e1;
      }

      .cls-10 {
        stroke: #87ffff;
        stroke-width: .5px;
      }

      .cls-20 {
        fill: #af2f36;
      }

      .cls-11 {
        stroke-width: 2px;
      }

      .cls-21 {
        fill: #af2d36;
      }

      .cls-22 {
        fill: #9ad6f3;
      }

      .cls-23 {
        fill: #e0e1e1;
      }

      .cls-12 {
        stroke: #f60;
      }

      .cls-6 {
        opacity: .72;
      }

      .cls-24 {
        fill: #fbfbfc;
      }

      .cls-25 {
        fill: #25354c;
      }

      .cls-26 {
        fill: #4c080e;
      }
    </style>
  </defs>
  <g id="Z">
    <path id="top_Z" data-name="top Z" class="cls-2" d="M858.05,275.18c-95.93-1.27,163.04-186.41,187.45-198.7,31.35-15.78,58.03-47.34-.89-58.49-40.12-7.6-23.35-5.29-96.41-11.86-28.83-2.6-86.01-6.82-216.83,2.46-91.56,6.49-169.32,14-335.62,17.99-19.19.46-291.97,19.77-206.28,18.59,1448.45-19.89,167.95.81,139.12,1.22-35.24.51,131.21.77,161.24,1.98l259.63,4.98c218.32,18.23,17.44,155.57-15.92,186.68-115.86,108.06,84.2-69.56-23.81,17.26-3.59,2.89-11.89,13.01-13.19,15.67"/>
    <path id="bottom_Z" data-name="bottom Z" class="cls-3" d="M697.12,272.25c-5.47,6.67-6.85,10.88-7.89,17.64-4.81,31.27,12.93,31.6,30.87,35.16,13.65,2.71,31.24,1.27,52.85-.03,123.22-7.44,349.92-14.44,423.08-18.93,202.34-12.44,444.04-32.22,635.37-32.96,10.3-.07,20.35-.25,29.86-.54"/>
    <path id="z_band" class="cls-3" d="M837.16,259.02l-128.71-.8,44.2-34.72c3.69-2.5,17.26-2.8,21.04-3.18l88.18,1.66c-4.72,4.97-17.02,21.04-24.72,37.07v-.03Z"/>
    <g id="squares">
      <rect class="cls-3" x="855.25" y="57.1" width="44.41" height="86.14"/>
      <rect class="cls-5" x="896.31" y="43.71" width="24.54" height="38.25"/>
      <rect class="cls-6" x="910.7" y="75.59" width="24.54" height="38.25"/>
      <rect class="cls-4" x="934.31" y="35.76" width="13.42" height="21.34"/>
    </g>
  </g>
  <g id="warpOmedia_logo_fire">
    <g>
      <g id="logo_fills">
        <g id="Layer0_0_FILL" data-name="Layer0 0 FILL">
          <path class="cls-13" d="M138.85,98.4h-40.63v105.79c-.21,11.36-5.82,19.26-16.84,23.72-6.39,2.78-14.34,2.33-23.85-1.32-9.67-3.45-15.41-10.91-17.22-22.4v-105.04H1.2c-1.6,65.69-.46,106.61,3.41,122.76,5.34,19.81,19.11,34.42,41.32,43.84,18.76,6.64,37.3,4.54,55.64-6.31,5.89-5.09,11.78-10.41,17.66-15.96,10.22,9.8,17.37,15.77,21.45,17.92,18.93,8.92,38.97,8.92,60.12,0,10.98-4.25,19.91-12.05,26.81-23.4,4.84-8.2,7.25-18.04,7.25-29.52,1.35-36.8,2.12-73.37,2.33-109.7h-41.07v103.21c.34,14.59-6.2,23.55-19.62,26.87-4.71,1.51-10.98,1.51-18.8,0-10.64-5.47-16.13-14.89-16.47-28.26l-2.4-102.2M384.31,103.13c-14.47-4.75-30.11-6.62-46.94-5.61-10.98.59-22.52,2.46-34.63,5.61-19.89,8.2-30.2,24.43-30.91,48.7h36.02c4.96-13.42,12.87-20.78,23.72-22.08,1.81-.38,3.74-.63,5.8-.76,7.11-.5,15.12.4,24.04,2.71,12.57,4.58,19.3,10.01,20.19,16.28v15.08c-14.89-.63-29.63-.5-44.22.38-3.36.25-6.71.48-10.03.69-13.58.59-24.62,2.52-33.12,5.8-11.48,3.62-19.56,10.09-24.22,19.43-2.65,5.26-4.35,10.72-5.11,16.4-.46,4.25-.46,8.66,0,13.25.97,7.61,3.45,15.6,7.44,23.97,6.39,13,19.62,20.94,39.68,23.85h26.24c19.35-.59,33.79-6.01,43.34-16.28v14.51h36.02c2.52-79.95,2.27-123.08-.76-129.39-3.62-14.09-14.47-24.94-32.55-32.55M337.38,194.8c12.32-1.3,27-.78,44.03,1.58-.97,10.01-3.09,17.85-6.37,23.53-3.24,5.68-10.62,9.84-22.14,12.49-5.51,1.22-10.68,1.77-15.52,1.64-5.47-.08-10.54-1.05-15.2-2.9-6.18-.93-10.85-5.43-14-13.5-.8-7.61.61-12.93,4.23-15.96,6.86-3.53,15.18-5.82,24.98-6.88M684.03,98.59c-19.39-4.25-41.66-3.83-66.81,1.26-25.11,4.92-38.02,23.45-38.73,55.58v176.26h41.07v-80.62c5.68,6.77,13.23,11.63,22.65,14.57,15.48,5.05,32.74,4.29,51.79-2.27,18.97-6.98,31.54-19.54,37.72-37.66,10.26-30.15,10.2-58.23-.19-84.22-11.02-23.43-26.85-37.72-47.5-42.9M644.92,134.49c6.77-2.44,13.92-3.11,21.45-2.02,16.02,3.74,26.16,13.08,30.41,28.01,4.54,14.89,3.68,30.24-2.59,46.05-3.87,9.93-10.68,16.51-20.44,19.75-9.8,3.15-18.9,4.02-27.32,2.59-8.62-1.51-16.61-8.41-23.97-20.69-3.36-15.69-4.44-31.69-3.22-48.01,1.51-12.28,10.07-20.84,25.68-25.68M489.35,162.56c2.9-14.26,14.68-23.97,35.33-29.15,5.3-1.22,17.2-1.22,35.71,0v-33.94c-22.71-3.03-45.51-3.03-68.38,0-23.13,6.18-36.27,16.57-39.43,31.16-2.06,13.16-2.86,58.44-2.4,135.82h39.18v-103.9M1105.37,134.61c8.71,3.03,13.18,9.93,13.44,20.69v110.46h42.9v-106.87c.38-13.42,4.73-21.09,13.06-23.03,8.2-2.06,17.01-1.98,26.43.25,9.42,2.23,14.55,9.34,15.39,21.32l3.79,107.75h37.35c-.25-39.32-1.05-77.43-2.4-114.31,0-11.44-2.4-21.26-7.19-29.46-6.9-11.36-15.86-19.16-26.87-23.4-21.11-8.96-39.76-9.13-55.96-.5-16.32,8.54-24.83,14.68-25.55,18.42-5.89-7.82-11.8-13.12-17.73-15.9-18.38-10.89-36.9-13-55.58-6.31-22.25,9.42-36.02,24.01-41.32,43.78-3.87,16.19-5.03,58.82-3.47,127.87h39.18v-110.08c1.81-11.48,7.55-18.55,17.22-21.2,9.5-2.69,18.61-2.52,27.32.5M1389.95,100.42c-16.57-6.9-37.39-6.9-62.45,0-24.9,7.11-40.54,29.8-46.94,68.07-1.01,20.19,1.16,38.12,6.5,53.81,5.09,18.08,16.51,31.31,34.26,39.68,24.01,11.57,49.35,11.21,76.02-1.07,13.54-5.34,23.64-13.02,30.28-23.03-5.21-9.17-12.76-17.39-22.65-24.67-4.92,7.74-13.18,14.13-24.79,19.18-11.27,2.44-21.83,2.44-31.67,0-17.54-2.27-27.38-14.74-29.52-37.41h97.47c11.36-.88,16.89-4.69,16.59-11.42v-17.03c-.21-29.1-14.57-51.14-43.09-66.11M1317.65,163.19c2.44-14.22,10.54-24.46,24.29-30.72,11.57-4.12,22.92-4.12,34.07,0,14,9.04,21.91,19.28,23.72,30.72h-82.07M1680.08,98.66v-.38h-38.92v166.92h38.92V98.66M1607.09,31.22h-37.66v83.65c-4.96-6.18-13.04-11.12-24.22-14.82-18-5.8-35.94-5.22-53.81,1.77-19.05,9.8-31.21,25.19-36.46,46.18-4.54,38.19-2.23,66.47,6.94,84.85,9.04,18.34,23.85,29.99,44.41,34.95,12.49,2.44,23.59,2.44,33.31,0,13.88-1.72,24.08-7.3,30.6-16.72v13.25h36.9V31.22M1543.88,133.73c12.24,3.62,20.23,11.78,23.97,24.48,2.99,15.39,2.99,30.79,0,46.18-1.93,11.23-8.66,19.91-20.19,26.05-5.76,3.03-12.39,3.93-19.87,2.71-25.36-2.65-38.21-16.4-38.54-41.26v-19.24c.93-15.22,7.25-26.43,18.99-33.62,11.61-7.19,23.49-8.96,35.64-5.3M1777.35,164.33c-3.36.25-6.67.48-9.9.69-13.67.63-24.71,2.57-33.12,5.8-11.52,3.66-19.62,10.14-24.29,19.43-1.35,2.65-2.46,5.34-3.34,8.07-.8,2.82-1.37,5.61-1.7,8.39-.5,4.25-.5,8.64,0,13.18.34,2.94.9,5.97,1.7,9.08,1.39,4.79,3.26,9.76,5.61,14.89,6.48,13,19.7,20.97,39.68,23.91h26.31c19.35-.63,33.77-6.06,43.28-16.28v14.45h36.08c2.52-79.95,2.27-123.06-.76-129.32-3.66-14.13-14.51-25-32.55-32.61-14.51-4.71-30.18-6.58-47-5.61-10.93.63-22.44,2.5-34.51,5.61-19.98,8.24-30.32,24.48-31.04,48.7h36.08c4.96-13.37,12.87-20.73,23.72-22.08,1.81-.38,3.72-.63,5.74-.76,7.11-.46,15.16.46,24.16,2.78,12.58,4.54,19.26,9.97,20.06,16.28v15.01c-14.85-.59-29.59-.46-44.22.38M1748.21,218.52c-.84-7.61.57-12.93,4.23-15.96,6.9-3.53,15.2-5.82,24.92-6.88,12.36-1.35,27.06-.82,44.1,1.58-1.01,10.05-3.13,17.92-6.37,23.59s-10.6,9.84-22.08,12.49c-5.55,1.18-10.77,1.72-15.65,1.64-5.38-.13-10.45-1.09-15.2-2.9-6.14-.93-10.79-5.45-13.94-13.56Z"/>
          <path class="cls-2" d="M1676.73,70.9c4.54-4.63,6.81-10.2,6.81-16.72v-1.39c-.08-1.72-.32-3.3-.69-4.73-.25-.59-.82-1.62-1.7-3.09-.21-.46-.91-2.14-1.12-2.64-7.99,10.05-17.37,21.95-29.1,33.3.08.04.21.08.38.13.17.08.34.15.5.19.8.38,1.3.57,1.51.57,2.31.84,4.44,1.26,6.37,1.26.08,0,.19,0,.32,0,6.52,0,12.09-2.29,16.72-6.88M1680.52,43.52c.21.5.42.99.63,1.45M1681.15,44.97,1660.02,30.65c-6.52,0-12.09,2.29-16.72,6.88-4.54,4.63-6.81,10.18-6.81,16.65,0,5.09,1.56,9.76,4.67,14,.5.8,1.22,1.7,2.14,2.71.5.42,1.37,1.14,2.59,2.14.25-.21.5-.4.76-.57,11.57-11.36,22-22.56,31.29-33.62-.5-.5-.9-.95-1.2-1.32-.5-.46-1.01-.88-1.51-1.26l-.19-.19c-.8-.71-1.7-1.51-2.71-2.4-3.62-2.02-7.72-3.03-12.3-3.03Z"/>
        </g>
      </g>
      <g id="logo_outline">
        <path id="logo_outline_strokes" class="cls-9" d="M1711.81,152.72c.72-24.22,11.06-40.46,31.04-48.7,12.07-3.11,23.57-4.98,34.51-5.61,16.82-.97,32.49.9,47,5.61,18.04,7.61,28.89,18.48,32.55,32.61,3.03,6.27,3.28,49.37.76,129.32h-36.08v-14.45c-9.5,10.22-23.93,15.65-43.28,16.28h-26.31c-19.98-2.94-33.2-10.91-39.68-23.91-2.36-5.13-4.23-10.09-5.61-14.89-.8-3.11-1.37-6.14-1.7-9.08-.5-4.54-.5-8.94,0-13.18.34-2.78.9-5.57,1.7-8.39.88-2.73,2-5.43,3.34-8.07,4.67-9.29,12.76-15.77,24.29-19.43,8.41-3.24,19.45-5.17,33.12-5.8,3.24-.21,6.54-.44,9.9-.69,14.64-.84,29.38-.97,44.22-.38v-15.01c-.8-6.31-7.49-11.73-20.06-16.28-9-2.31-17.05-3.24-24.16-2.78-2.02.13-3.93.38-5.74.76-10.85,1.35-18.76,8.71-23.72,22.08h-36.08ZM1821.45,197.26c-17.03-2.4-31.73-2.92-44.1-1.58-9.72,1.05-18.02,3.34-24.92,6.88-3.66,3.03-5.07,8.35-4.23,15.96,3.15,8.12,7.8,12.64,13.94,13.56,4.75,1.81,9.82,2.78,15.2,2.9,4.88.08,10.09-.46,15.65-1.64,11.48-2.65,18.84-6.81,22.08-12.49s5.36-13.54,6.37-23.59ZM1641.15,68.19c-3.11-4.25-4.67-8.92-4.67-14,0-6.48,2.27-12.03,6.81-16.65,4.63-4.58,10.2-6.88,16.72-6.88,4.58,0,8.68,1.01,12.3,3.03M1680.52,43.52,1677.93,38.98c.38.38.99,1.35,1.83,2.9M1681.15,44.97c.88,1.47,1.45,2.5,1.7,3.09.38,1.43.61,3.01.69,4.73v1.39c0,6.52-2.27,12.09-6.81,16.72-4.63,4.58-10.2,6.88-16.72,6.88-.13,0-.23,0-.32,0-1.93,0-4.06-.42-6.37-1.26-.21,0-.71-.19-1.51-.57-.17-.04-.34-.11-.5-.19-.17-.04-.29-.08-.38-.13h-.19c-.34-.17-.8-.42-1.39-.76-.38-.13-.69-.32-.95-.57-1.3-.46-2.14-.88-2.52-1.26M1641.15,68.19c.5.8,1.22,1.7,2.14,2.71.5.42,1.37,1.14,2.59,2.14M1677.93,38.85c-.5-.5-.9-.95-1.2-1.32-.5-.46-1.01-.88-1.51-1.26l-.19-.19c-.8-.71-1.7-1.51-2.71-2.4M1677.93,38.85v.13M1454.93,147.99c5.26-20.99,17.41-36.38,36.46-46.18,17.87-6.98,35.81-7.57,53.81-1.77,11.19,3.7,19.26,8.64,24.22,14.82V31.22h37.66v233.1h-36.9v-13.25c-6.52,9.42-16.72,14.99-30.6,16.72-9.72,2.44-20.82,2.44-33.31,0-20.57-4.96-35.37-16.61-44.41-34.95-9.17-18.38-11.48-46.66-6.94-84.85ZM1527.79,233.15c-25.36-2.65-38.21-16.4-38.54-41.26v-19.24c.93-15.22,7.25-26.43,18.99-33.62,11.61-7.19,23.49-8.96,35.64-5.3,12.24,3.62,20.23,11.78,23.97,24.48,2.99,15.39,2.99,30.79,0,46.18-1.93,11.23-8.66,19.91-20.19,26.05-5.76,3.03-12.39,3.93-19.87,2.71ZM1679.48,42.18c.21.5,1.46,2.33,1.67,2.79M1680.08,98.59v166.61h-38.92V98.28h38.92v.32ZM1317.65,163.19c2.44-14.22,10.54-24.46,24.29-30.72,11.57-4.12,22.92-4.12,34.07,0,14,9.04,21.91,19.28,23.72,30.72h-82.07ZM1280.56,168.49c6.39-38.27,22.04-60.96,46.94-68.07,25.07-6.9,45.88-6.9,62.45,0,28.51,14.97,42.88,37.01,43.09,66.11v17.03c.29,6.73-5.24,10.54-16.59,11.42h-97.47c2.14,22.67,11.99,35.14,29.52,37.41,9.84,2.44,20.4,2.44,31.67,0,11.61-5.05,19.87-11.44,24.79-19.18,9.88,7.28,17.43,15.5,22.65,24.67-6.64,10.01-16.74,17.68-30.28,23.03-26.66,12.28-52,12.64-76.02,1.07-17.75-8.37-29.17-21.6-34.26-39.68-5.34-15.69-7.51-33.62-6.5-53.81ZM1021.66,265.39c-1.56-69.06-.4-111.68,3.47-127.87,5.3-19.77,19.07-34.36,41.32-43.78,18.67-6.69,37.2-4.58,55.58,6.31,5.93,2.78,11.84,8.07,17.73,15.9.71-3.74,9.23-9.88,25.55-18.42,16.19-8.62,34.84-8.45,55.96.5,11.02,4.25,19.98,12.05,26.87,23.4,4.79,8.2,7.19,18.02,7.19,29.46,1.35,36.88,2.14,74.99,2.4,114.31h-37.35l-3.79-107.75c-.84-11.99-5.97-19.09-15.39-21.32-9.42-2.23-18.23-2.31-26.43-.25-8.33,1.93-12.68,9.61-13.06,23.03v106.87h-42.9v-110.46c-.25-10.77-4.73-17.66-13.44-20.69-8.71-3.03-17.81-3.2-27.32-.5-9.67,2.65-15.41,9.72-17.22,21.2v110.08h-39.18ZM450.18,266.46c-.46-77.38.34-122.66,2.4-135.82,3.15-14.59,16.3-24.98,39.43-31.16,22.88-3.03,45.67-3.03,68.38,0v33.94c-18.5-1.22-30.41-1.22-35.71,0-20.65,5.17-32.43,14.89-35.33,29.15v103.9h-39.18ZM622.46,208.17c-3.36-15.69-4.44-31.69-3.22-48.01,1.51-12.28,10.07-20.84,25.68-25.68,6.77-2.44,13.92-3.11,21.45-2.02,16.02,3.74,26.16,13.08,30.41,28.01,4.54,14.89,3.68,30.24-2.59,46.05-3.87,9.93-10.68,16.51-20.44,19.75-9.8,3.15-18.9,4.02-27.32,2.59-8.62-1.51-16.61-8.41-23.97-20.69ZM578.49,331.69v-176.26c.71-32.13,13.63-50.66,38.73-55.58,25.15-5.09,47.42-5.51,66.81-1.26,20.65,5.17,36.48,19.47,47.5,42.9,10.39,25.99,10.45,54.06.19,84.22-6.18,18.13-18.76,30.68-37.72,37.66-19.05,6.56-36.32,7.32-51.79,2.27-9.42-2.94-16.97-7.8-22.65-14.57v80.62h-41.07ZM271.83,151.84c.71-24.27,11.02-40.5,30.91-48.7,12.11-3.15,23.66-5.03,34.63-5.61,16.82-1.01,32.47.86,46.94,5.61,18.08,7.61,28.93,18.46,32.55,32.55,3.03,6.31,3.28,49.44.76,129.39h-36.02v-14.51c-9.55,10.26-23.99,15.69-43.34,16.28h-26.24c-20.06-2.9-33.29-10.85-39.68-23.85-4-8.37-6.48-16.36-7.44-23.97-.46-4.58-.46-9,0-13.25.76-5.68,2.46-11.14,5.11-16.4,4.67-9.34,12.74-15.81,24.22-19.43,8.5-3.28,19.54-5.22,33.12-5.8,3.32-.21,6.67-.44,10.03-.69,14.59-.88,29.33-1.01,44.22-.38v-15.08c-.88-6.27-7.61-11.69-20.19-16.28-8.92-2.31-16.93-3.22-24.04-2.71-2.06.13-4,.38-5.8.76-10.85,1.3-18.76,8.66-23.72,22.08h-36.02ZM1.2,99.16c-1.6,65.69-.46,106.61,3.41,122.76,5.34,19.81,19.11,34.42,41.32,43.84,18.76,6.64,37.3,4.54,55.64-6.31,5.89-5.09,11.78-10.41,17.66-15.96,10.22,9.8,17.37,15.77,21.45,17.92,18.93,8.92,38.97,8.92,60.12,0,10.98-4.25,19.91-12.05,26.81-23.4,4.84-8.2,7.25-18.04,7.25-29.52,1.35-36.8,2.12-73.37,2.33-109.7h-41.07v103.21c.34,14.59-6.2,23.55-19.62,26.87-4.71,1.51-10.98,1.51-18.8,0-10.64-5.47-16.13-14.89-16.47-28.26l-2.4-102.2h-40.63v105.79c-.21,11.36-5.82,19.26-16.84,23.72-6.39,2.78-14.34,2.33-23.85-1.32-9.67-3.45-15.41-10.91-17.22-22.4v-105.04H1.2ZM381.41,196.37c-17.03-2.36-31.71-2.88-44.03-1.58-9.8,1.05-18.13,3.34-24.98,6.88-3.62,3.03-5.03,8.35-4.23,15.96,3.15,8.07,7.82,12.57,14,13.5,4.67,1.85,9.74,2.82,15.2,2.9,4.84.13,10.01-.42,15.52-1.64,11.52-2.65,18.9-6.81,22.14-12.49,3.28-5.68,5.4-13.52,6.37-23.53Z"/>
      </g>
      <g id="planet_rings">
        <path id="Layer0_0_2_STROKES" data-name="Layer0 0 2 STROKES" class="cls-11" d="M1705.88,1c-3.91,5.76-7.8,11.36-11.67,16.78-5.43,7.49-10.85,14.55-16.28,21.2M1612.39,103.45c12.91-9.13,24.08-19.26,33.5-30.41.25-.21.5-.4.76-.57"/>
      </g>
      <g id="planet_rings-2" data-name="planet_rings">
        <path id="Layer0_0_3_STROKES" data-name="Layer0 0 3 STROKES" class="cls-12" d="M1672.32,33.68c5.47-6.14,10.35-11.44,14.64-15.9,9.29-9.84,15.6-15.43,18.93-16.78M1612.39,103.45c-1.47.29,8.12-11.46,28.77-35.26"/>
      </g>
      <path id="Layer0_0_4_STROKES" data-name="Layer0 0 4 STROKES" class="cls-8" d="M1677.93,38.85c-9.29,11.06-19.72,22.27-31.29,33.62"/>
      <path id="Layer0_0_5_STROKES" data-name="Layer0 0 5 STROKES" class="cls-10" d="M1680.08,98.66c.08-.04.13-.08.13-.13"/>
      <g id="planet_ring">
        <path id="Layer0_0_7_STROKES" data-name="Layer0 0 7 STROKES" class="cls-7" d="M1650.17,73.7c10.94-9.62,20.99-19.8,28.37-30.37"/>
      </g>
    </g>
  </g>
  <g id="Rocket">
    <g id="Generative_Object" data-name="Generative Object">
      <g>
        <path class="cls-17" d="M76.27,23.47l-4.95.53c14.1-.86,7.99-.94-12.35.94-1.12.1-17.41,2.5-18.35,2.78-.35.1,1.82.46,1.22.23l-.09,17.26c5.92-.05,11.88-.45,17.78-.03.59-6.14,4.79-11.12,11.07-11.28,5.99-.15,11.44,4.71,11.57,10.85.59-.06,1.27-.21,1.96-.22l8.11-.17c1.66-.03,3.33.26,4.89.04,1.89-.27,3.52.13,5.39.03l2.12-.11,9.51.21c1.26-1.08,3.05-2.96,4.97-2.99l26.42-.39.11-14.22c-12.22-3.1-26.49-3.7-39.34-4.19"/>
        <line class="cls-18" x1="132.19" y1="2.9" x2="139.66" y2="2.92"/>
      </g>
      <g>
        <g>
          <path class="cls-24" d="M32.39,60.11c.09-.31-.17-.27-.36-.33-.06.24.11.44.36.33Z"/>
          <g>
            <path class="cls-13" d="M106.67,66.64c13.51-1.02,25.84-1.6,38.98-4.82l-.09-14.31-26.51.15c-1.98.01-3.53-2.11-4.92-3.15l-9.51-.21-2.12.11c-1.87.09-3.5-.31-5.39-.03-1.56.23-3.23-.07-4.89-.04l-8.11.17c-.69.01-1.37.16-1.96.22.13,6.13-5.16,10.99-11.09,11.07-6.27.09-10.61-4.59-11.55-10.63-5.9-.42-11.86-.02-17.78.03l.34,16.71c.29.07-.38-.48-.45.4,20.64,4.68,43.21,5.24,64.43,4.34"/>
            <path class="cls-23" d="M135.87,85.94c-1.02.03-2.01.15-3.25.04"/>
            <g>
              <path class="cls-21" d="M32.03,59.78c.19.06.44.02.36.33.12-.06.25.02.37.05l8.39,2.23c.34.09.69.41.87.15.11-.15.19-.42.06-.64l-.34-16.71-38.76.31c7.34,6.09,19.77,11.36,29.06,14.26Z"/>
              <g>
                <path class="cls-15" d="M2.98,45.51l38.76-.31.1-17.73c.07-.29-.17.12-.32.1-.24-.05-.52.05-.9.15-11.54,3.09-22.5,7.36-32.54,13.73-1.97,1.25-4.27,2.25-5.09,4.07Z"/>
                <path class="cls-14" d="M19.02,39.75c2.51-.44,20.18-4.5,19.5-6.25-.09-.24-.54-.61-1.04-.53-6.31.95-12.34,2.78-17.89,5.96-.29.17-.65-.26-.82-.08-.14.16-.32,1,.26.9Z"/>
              </g>
            </g>
            <g>
              <path class="cls-25" d="M82.16,44.73c-.13-6.14-5.58-11-11.57-10.85-6.28.16-10.48,5.14-11.07,11.28.94,6.05,5.29,10.72,11.55,10.63,5.93-.08,11.21-4.94,11.09-11.07Z"/>
              <path class="cls-22" d="M62.57,45.12l16.68-.12c.83-4.7-3.78-8.69-8.31-8.66-5.26.03-8.54,4.18-8.37,8.78Z"/>
              <path class="cls-19" d="M79.26,45l-16.68.12c.17,4.48,3.28,8.21,8.52,8.22,4.24,0,8.87-3.87,8.17-8.34Z"/>
            </g>
          </g>
        </g>
        <g>
          <g>
            <path class="cls-26" d="M132.62,85.98c1.24.1,2.23-.01,3.25-.04,10.88-.3,21.76-.68,32.73-1.93.88-.1,1.69-.19,2.16-.71-.43-.38-.71-1.01-1.36-1.51l-11.76-9.03c-4.19-3.21-8.84-6.95-12-10.96,1.55-.37.16-.05,1.16-.27,1.34-.42,2.7-1.02,4.29-1.94.98-.57.44-2.88.78-4.19l6.15,2.79c.39-.53.47-1.19.57-1.64.24-1.26.12-.91.34-2.45.18-1.29.23-2.32.19-2.59-.11-.68.12-.6-.04-4.38l-13.51.39.09,14.28c-13.14,3.22-25.47,3.83-38.98,4.85"/>
            <path class="cls-1" d="M106.29,22.73c12.85.48,27.12,1.08,39.34,4.19.28.02.35.06.47,0,4.15-5.17,8.98-9.62,14.36-13.77l9.35-7.23c.34-.27.36-.73.17-.92-1.04-1.05-27.18-2.08-30.33-2.09l-7.47-.02"/>
          </g>
          <g>
            <path class="cls-21" d="M145.52,41.25l13.5.25-.16-2.91c-.06-.77-.09-1.29-.09-1.36-.04-.71-.08-1.49-.32-3.83,0-.34-.18-1.3-.49-3.28l-6.29,3.01c-.23-1.12.23-3.12-.66-3.93-1.46-1.34-3.32-1.66-4.92-2.17-.16-.05-.21-.11-.47-.07l-.11,14.29Z"/>
            <g>
              <path class="cls-16" d="M169.87,44.44c.09-1.12-1.98-2.36-3.58-2.47l-8.04-.54-12.73-.28-26.42.39c-1.92.03-3.71,1.9-4.97,2.99l51.39-.13c1.66,0,2.97-.33,4.34.05Z"/>
              <path class="cls-20" d="M145.68,47.5l13.04-.32,7-.67c1.1-.03,2.43-.41,3.54-.94.41-.19.72-.84.74-1.16-1.37-.38-2.68-.06-4.34-.05l-51.39.13c1.39,1.04,2.94,3.16,4.92,3.15l26.51-.15Z"/>
            </g>
          </g>
        </g>
      </g>
    </g>
  </g>
</svg>